<svg width="50" height="32" viewBox="0 0 50 32" fill="none" xmlns="http://www.w3.org/2000/svg">
<path d="M23.3137 30.5412C23.2275 30.8522 23.0286 31.1283 22.7485 31.3256C22.4684 31.5229 22.1232 31.6301 21.7678 31.6301C21.6335 31.6307 21.4997 31.6162 21.3694 31.587L14.9944 30.1495C14.8169 30.1093 14.6484 30.0418 14.4963 29.95L9.71505 27.075C9.36343 26.8634 9.1194 26.5345 9.03664 26.1607C8.95389 25.7868 9.03919 25.3986 9.27378 25.0814C9.50838 24.7642 9.87304 24.5441 10.2876 24.4695C10.7021 24.3949 11.1325 24.4718 11.4841 24.6834L16.0343 27.42L22.1423 28.7982C22.3464 28.8429 22.5387 28.9234 22.7081 29.0353C22.8776 29.1472 23.0209 29.2881 23.1297 29.4501C23.2386 29.6121 23.3109 29.7918 23.3424 29.9791C23.374 30.1663 23.3643 30.3574 23.3137 30.5412ZM49.7481 13.2086C49.6173 13.5668 49.4091 13.8982 49.1356 14.1834C48.862 14.4687 48.5285 14.7023 48.1543 14.8707L43.4368 16.9982L32.4638 26.8971C32.2691 27.0726 32.0273 27.1996 31.7619 27.2657C31.4966 27.3319 31.2168 27.3349 30.9498 27.2745L18.1998 24.3995C18.0059 24.3556 17.8228 24.2794 17.6599 24.1749L6.59927 17.0521L1.76224 14.8707C1.00628 14.5298 0.431343 13.9321 0.163857 13.209C-0.10363 12.4859 -0.0417698 11.6965 0.335836 11.0146L5.28642 2.08589C5.66433 1.40404 6.32699 0.885475 7.1287 0.644212C7.93042 0.402949 8.80554 0.458745 9.56166 0.79933L13.9564 2.77589L24.515 0.0554239C24.8015 -0.0184746 25.1051 -0.0184746 25.3916 0.0554239L35.9502 2.77589L40.3449 0.79933C41.1011 0.458745 41.9762 0.402949 42.7779 0.644212C43.5796 0.885475 44.2423 1.40404 44.6202 2.08589L49.5708 11.0146C49.7596 11.3516 49.8725 11.719 49.9029 12.0956C49.9333 12.4721 49.8807 12.8504 49.7481 13.2086ZM40.5481 15.5337L35.1274 5.75511H28.7883L20.174 13.302C22.6961 14.7557 26.6506 15.1564 30.1987 11.931C30.4758 11.679 30.8465 11.5285 31.2393 11.5082C31.6321 11.488 32.0193 11.5995 32.3264 11.8214L39.1815 16.7753L40.5481 15.5337ZM3.18666 12.2993L6.71083 13.8896L11.6614 4.96089L8.13724 3.37066L3.18666 12.2993ZM36.9084 18.8112L31.3881 14.8239C27.4953 17.6989 22.5527 18.0781 18.4568 15.7224C18.0539 15.4912 17.7137 15.1814 17.4614 14.8157C17.2091 14.45 17.0511 14.0379 16.999 13.6098C16.947 13.1816 17.0023 12.7484 17.1608 12.3422C17.3194 11.9359 17.5771 11.5669 17.9149 11.2625C17.9197 11.2573 17.925 11.2525 17.9308 11.2482L26.8678 3.42996L24.9553 2.93761L14.9107 5.52691L9.45806 15.3612L19.2596 21.6772L30.8422 24.2881L36.9084 18.8112ZM46.7179 12.2993L41.7733 3.37066L38.2492 4.96089L43.1997 13.8896L46.7179 12.2993Z" fill="black"/>
</svg>
